<?xml version="1.0" encoding="UTF-8" standalone="no"?>
<!-- Created with Inkscape (http://www.inkscape.org/) -->

<svg
   width="76.695015mm"
   height="77.999969mm"
   viewBox="0 0 76.695015 77.999969"
   version="1.1"
   id="svg5"
   inkscape:version="1.1 (c4e8f9e, 2021-05-24)"
   sodipodi:docname="doushikani_nofonts.svg"
   inkscape:export-filename="/Users/eickler/Desktop/doushikani.png"
   inkscape:export-xdpi="96"
   inkscape:export-ydpi="96"
   xmlns:inkscape="http://www.inkscape.org/namespaces/inkscape"
   xmlns:sodipodi="http://sodipodi.sourceforge.net/DTD/sodipodi-0.dtd"
   xmlns="http://www.w3.org/2000/svg"
   xmlns:svg="http://www.w3.org/2000/svg">
  <sodipodi:namedview
     id="namedview7"
     pagecolor="#ffffff"
     bordercolor="#666666"
     borderopacity="1.0"
     inkscape:pageshadow="2"
     inkscape:pageopacity="0.0"
     inkscape:pagecheckerboard="0"
     inkscape:document-units="mm"
     showgrid="false"
     inkscape:zoom="0.67081229"
     inkscape:cx="134.91106"
     inkscape:cy="240.75289"
     inkscape:window-width="1312"
     inkscape:window-height="1003"
     inkscape:window-x="193"
     inkscape:window-y="25"
     inkscape:window-maximized="0"
     inkscape:current-layer="text8133"
     fit-margin-top="0"
     fit-margin-left="0"
     fit-margin-right="0"
     fit-margin-bottom="0" />
  <defs
     id="defs2">
    <rect
       x="213.17439"
       y="71.555038"
       width="435.29315"
       height="172.92468"
       id="rect8135" />
    <clipPath
       clipPathUnits="userSpaceOnUse"
       id="clipPath41">
      <path
         d="M 0,800 H 800 V 0 H 0 Z"
         id="path39" />
    </clipPath>
    <clipPath
       clipPathUnits="userSpaceOnUse"
       id="clipPath153">
      <path
         d="M 0,800 H 800 V 0 H 0 Z"
         id="path151" />
    </clipPath>
    <clipPath
       clipPathUnits="userSpaceOnUse"
       id="clipPath193">
      <path
         d="M 0,800 H 800 V 0 H 0 Z"
         id="path191" />
    </clipPath>
    <clipPath
       clipPathUnits="userSpaceOnUse"
       id="clipPath213">
      <path
         d="M 0,800 H 800 V 0 H 0 Z"
         id="path211" />
    </clipPath>
    <clipPath
       clipPathUnits="userSpaceOnUse"
       id="clipPath293">
      <path
         d="M 0,800 H 800 V 0 H 0 Z"
         id="path291" />
    </clipPath>
    <clipPath
       clipPathUnits="userSpaceOnUse"
       id="clipPath329">
      <path
         d="M 0,800 H 800 V 0 H 0 Z"
         id="path327" />
    </clipPath>
  </defs>
  <g
     inkscape:label="Layer 1"
     inkscape:groupmode="layer"
     id="layer1"
     transform="translate(-1.319117,-1.0108144)">
    <g
       id="g31"
       inkscape:label="39234-O1X4KC"
       transform="matrix(0.35277777,0,0,-0.35277777,-159.97476,113.57016)">
      <g
         id="g351"
         transform="translate(587.001,224.001)">
        <path
           d="m 0,0 c 0,-1.474 -1.194,-2.668 -2.668,-2.668 -1.474,0 -2.668,1.194 -2.668,2.668 0,1.474 1.194,2.668 2.668,2.668 C -1.194,2.668 0,1.474 0,0"
           style="fill:#1a171b;fill-opacity:1;fill-rule:evenodd;stroke:none"
           id="path353" />
      </g>
      <g
         id="g355"
         transform="translate(557.001,224.001)">
        <path
           d="m 0,0 c 0,-1.474 -1.194,-2.668 -2.668,-2.668 -1.474,0 -2.668,1.194 -2.668,2.668 0,1.474 1.194,2.668 2.668,2.668 C -1.194,2.668 0,1.474 0,0"
           style="fill:#1a171b;fill-opacity:1;fill-rule:evenodd;stroke:none"
           id="path357" />
      </g>
      <g
         id="g359"
         transform="translate(580.999,199.334)">
        <path
           d="m 0,0 c -0.553,0 -1,0.447 -1,1 v 13.667 c 0,0.553 0.447,1 1,1 0.553,0 1,-0.447 1,-1 V 1 C 1,0.447 0.553,0 0,0"
           style="fill:#1a171b;fill-opacity:1;fill-rule:nonzero;stroke:none"
           id="path361" />
      </g>
      <g
         id="g363"
         transform="translate(580.333,233.001)">
        <path
           d="m 0,0 c -4.963,0 -9,-4.037 -9,-9 0,-4.963 4.037,-9 9,-9 4.963,0 9,4.037 9,9 0,4.963 -4.037,9 -9,9 m 0,-20 c -6.065,0 -11,4.935 -11,11 0,6.065 4.935,11 11,11 6.065,0 11,-4.935 11,-11 0,-6.065 -4.935,-11 -11,-11"
           style="fill:#1a171b;fill-opacity:1;fill-rule:nonzero;stroke:none"
           id="path365" />
      </g>
      <g
         id="g367"
         transform="translate(550.333,199.334)">
        <path
           d="m 0,0 c -0.553,0 -1,0.447 -1,1 v 13.667 c 0,0.553 0.447,1 1,1 0.553,0 1,-0.447 1,-1 V 1 C 1,0.447 0.553,0 0,0"
           style="fill:#1a171b;fill-opacity:1;fill-rule:nonzero;stroke:none"
           id="path369" />
      </g>
      <g
         id="g371"
         transform="translate(550.333,233.001)">
        <path
           d="m 0,0 c -4.963,0 -9,-4.037 -9,-9 0,-4.963 4.037,-9 9,-9 4.963,0 9,4.037 9,9 0,4.963 -4.037,9 -9,9 m 0,-20 c -6.065,0 -11,4.935 -11,11 0,6.065 4.935,11 11,11 6.065,0 11,-4.935 11,-11 0,-6.065 -4.935,-11 -11,-11"
           style="fill:#1a171b;fill-opacity:1;fill-rule:nonzero;stroke:none"
           id="path373" />
      </g>
      <g
         id="g375"
         transform="translate(489.291,202.3457)">
        <path
           d="M 0,0 V 30.987 C -15.538,30.808 -28.08,18.164 -28.08,2.582 c 0,-15.693 12.72,-28.414 28.413,-28.414 14.82,0 26.986,11.352 28.292,25.832 z"
           style="fill:#d69578;fill-opacity:1;fill-rule:evenodd;stroke:none"
           id="path377" />
      </g>
      <g
         id="g379"
         transform="translate(646.5352,202.3457)">
        <path
           d="M 0,0 V 30.987 C 15.538,30.808 28.079,18.164 28.079,2.582 c 0,-15.693 -12.719,-28.414 -28.412,-28.414 -14.82,0 -26.986,11.352 -28.292,25.832 z"
           style="fill:#d69578;fill-opacity:1;fill-rule:evenodd;stroke:none"
           id="path381" />
      </g>
      <g
         id="g383"
         transform="translate(632.3164,145.8066)">
        <path
           d="m 0,0 c 0,-26.423 -28.743,-47.843 -64.199,-47.843 -35.456,0 -64.201,21.42 -64.201,47.843 0,26.423 28.745,47.844 64.201,47.844 C -28.743,47.844 0,26.423 0,0"
           style="fill:#d69578;fill-opacity:1;fill-rule:evenodd;stroke:none"
           id="path385" />
      </g>
      <g
         id="g387"
         transform="translate(485.291,240.3027)">
        <path
           d="m 0,0 c -14.472,-0.7 -26.08,-12.774 -26.08,-27.375 0,-15.116 12.298,-27.414 27.413,-27.414 13.912,0 25.409,10.17 27.177,23.832 H 1 c -0.553,0 -1,0.447 -1,1 z m 1.333,-56.789 c -16.219,0 -29.413,13.195 -29.413,29.414 0,16.028 13.04,29.22 29.068,29.405 C 1.253,2.003 1.513,1.93 1.703,1.741 1.893,1.554 2,1.298 2,1.03 v -29.987 h 27.625 c 0.281,0 0.549,-0.118 0.738,-0.325 0.19,-0.207 0.283,-0.486 0.258,-0.765 C 29.246,-45.292 16.655,-56.789 1.333,-56.789"
           style="fill:#1a171b;fill-opacity:1;fill-rule:nonzero;stroke:none"
           id="path389" />
      </g>
      <g
         id="g391"
         transform="translate(500.4004,156.1699)">
        <path
           d="m 0,0 h -13.918 c -0.553,0 -1,0.447 -1,1 v 26.942 c 0,0.553 0.447,1 1,1 0.553,0 1,-0.447 1,-1 V 2 H 0 C 0.553,2 1,1.553 1,1 1,0.447 0.553,0 0,0"
           style="fill:#1a171b;fill-opacity:1;fill-rule:nonzero;stroke:none"
           id="path393" />
      </g>
      <g
         id="g395"
         transform="translate(616.0254,209.3457)">
        <path
           d="m 0,0 c 1.768,-13.662 13.265,-23.832 27.177,-23.832 15.115,0 27.412,12.298 27.412,27.414 0,14.601 -11.608,26.675 -26.079,27.375 L 28.51,1 c 0,-0.553 -0.448,-1 -1,-1 z m 27.177,-25.832 c -15.323,0 -27.913,11.497 -29.288,26.742 -0.026,0.279 0.068,0.558 0.257,0.765 C -1.664,1.882 -1.396,2 -1.115,2 H 26.51 v 29.987 c 0,0.268 0.107,0.524 0.297,0.711 0.19,0.189 0.445,0.257 0.714,0.289 16.028,-0.185 29.068,-13.377 29.068,-29.405 0,-16.219 -13.194,-29.414 -29.412,-29.414"
           style="fill:#1a171b;fill-opacity:1;fill-rule:nonzero;stroke:none"
           id="path397" />
      </g>
      <g
         id="g399"
         transform="translate(643.3437,156.1699)">
        <path
           d="m 0,0 h -13.918 c -0.553,0 -1,0.447 -1,1 0,0.553 0.447,1 1,1 H -1 v 25.942 c 0,0.553 0.447,1 1,1 0.553,0 1,-0.447 1,-1 V 1 C 1,0.447 0.553,0 0,0"
           style="fill:#1a171b;fill-opacity:1;fill-rule:nonzero;stroke:none"
           id="path401" />
      </g>
      <g
         id="g403"
         transform="translate(565.1172,200.6504)">
        <path
           d="m 0,0 c -34.85,0 -63.201,-21.014 -63.201,-46.844 0,-25.829 28.351,-46.843 63.201,-46.843 34.849,0 63.199,21.014 63.199,46.843 C 63.199,-21.014 34.849,0 0,0 m 0,-95.687 c -35.952,0 -65.201,21.912 -65.201,48.843 C -65.201,-19.911 -35.952,2 0,2 35.951,2 65.199,-19.911 65.199,-46.844 65.199,-73.775 35.951,-95.687 0,-95.687"
           style="fill:#1a171b;fill-opacity:1;fill-rule:nonzero;stroke:none"
           id="path405" />
      </g>
      <g
         id="g407"
         transform="translate(502.3955,142.9365)">
        <path
           d="m 0,0 h -32.879 c -0.553,0 -1,0.447 -1,1 0,0.553 0.447,1 1,1 H 0 C 0.553,2 1,1.553 1,1 1,0.447 0.553,0 0,0"
           style="fill:#1a171b;fill-opacity:1;fill-rule:nonzero;stroke:none"
           id="path409" />
      </g>
      <g
         id="g411"
         transform="translate(513.5879,124.0488)">
        <path
           d="m 0,0 h -44.071 c -0.553,0 -1,0.447 -1,1 0,0.553 0.447,1 1,1 H 0 C 0.553,2 1,1.553 1,1 1,0.447 0.553,0 0,0"
           style="fill:#1a171b;fill-opacity:1;fill-rule:nonzero;stroke:none"
           id="path413" />
      </g>
      <g
         id="g415"
         transform="translate(661.541,142.9365)">
        <path
           d="m 0,0 h -32.879 c -0.553,0 -1,0.447 -1,1 0,0.553 0.447,1 1,1 H 0 C 0.553,2 1,1.553 1,1 1,0.447 0.553,0 0,0"
           style="fill:#1a171b;fill-opacity:1;fill-rule:nonzero;stroke:none"
           id="path417" />
      </g>
      <g
         id="g419"
         transform="translate(661.541,124.0488)">
        <path
           d="m 0,0 h -44.071 c -0.553,0 -1,0.447 -1,1 0,0.553 0.447,1 1,1 H 0 C 0.553,2 1,1.553 1,1 1,0.447 0.553,0 0,0"
           style="fill:#1a171b;fill-opacity:1;fill-rule:nonzero;stroke:none"
           id="path421" />
      </g>
    </g>
    <g
       aria-label="動詞"
       transform="matrix(0.34075892,0,0,0.3269744,-107.10485,-28.021901)"
       id="text8133"
       style="font-size:85.3333px;line-height:1.25;font-family:'07YasashisaAntique';-inkscape-font-specification:'07YasashisaAntique';text-align:center;white-space:pre;shape-inside:url(#rect8135);fill:#d69578">
      <path
         d="m 425.61498,110.89334 q 0,6.31466 0,11.43466 0,5.12 -0.0853,9.216 -0.0853,4.09599 -0.256,7.67999 -0.17067,3.49867 -0.42667,6.48533 -0.34133,2.98667 -0.59733,5.29067 -0.256,2.304 -0.59733,3.84 -0.34134,1.536 -0.768,2.73066 -0.42667,1.28 -1.10934,2.21867 -1.28,1.792 -2.73066,2.21866 -1.28,0.34134 -3.75467,0.34134 -3.75466,0 -10.75199,-0.768 -0.512,-0.0853 -0.512,-0.59734 l -0.17067,-6.82666 q 0,-0.68267 0.768,-0.68267 2.47467,0.34134 4.52266,0.512 2.048,0.17067 3.66934,0.17067 0.85333,0 1.45066,-0.59733 0.42667,-0.59734 1.10934,-2.816 0.256,-1.10934 0.42666,-2.64533 0.256,-1.536 0.42667,-3.584 0.17067,-1.96267 0.256,-4.69333 0.0853,-2.73067 0.17067,-6.31467 0.0853,-3.584 0.0853,-7.76533 0.0853,-4.26666 0.0853,-9.38666 v -3.328 h -9.72799 q -1.024,19.62666 -3.92534,30.80532 -1.45066,5.632 -3.58399,10.496 -2.13334,4.77866 -4.864,8.95999 -0.256,0.59734 -0.85334,0.17067 l -6.14399,-3.75467 q -9.472,1.36534 -18.688,2.21867 -9.13066,0.85333 -18.26132,1.28 -0.59733,0 -0.59733,-0.59733 l -0.42667,-6.144 q 0,-0.59733 0.59733,-0.59733 4.77867,-0.17067 8.96,-0.42667 4.18133,-0.34133 7.85066,-0.68267 v -4.352 h -15.44532 q -0.59734,0 -0.59734,-0.59733 v -5.46133 q 0,-0.59733 0.59734,-0.59733 h 15.44532 v -3.75467 h -14.16533 q -0.59733,0 -0.59733,-0.59733 V 114.648 q 0,-0.59733 0.59733,-0.59733 h 14.16533 V 110.296 h -16.04266 q -0.59733,0 -0.59733,-0.59733 v -5.54666 q 0,-0.59734 0.59733,-0.59734 h 16.04266 v -4.095994 q -7.33866,0.682664 -14.33599,0.768004 -0.59733,0 -0.59733,-0.597338 l -0.42667,-6.058664 q 0,-0.597333 0.59733,-0.597333 9.472,-0.341333 18.60266,-1.194666 9.216,-0.938666 18.43199,-2.474666 0.512,0 0.68267,0.512 l 0.85333,6.314664 q 0.17067,0.512 -0.512,0.682667 -3.41333,0.597333 -6.99733,1.023999 -3.584,0.426667 -7.33866,0.853333 v 4.863994 h 14.59199 q 0.59734,0 0.59734,0.59734 v 1.36533 h 7.67999 q 0.256,-7.25333 0.256,-16.127993 0,-0.597333 0.59734,-0.597333 h 7.16799 q 0.59734,0 0.59734,0.597333 0,8.703996 -0.256,16.127993 h 17.66399 q 0.59733,0 0.59733,0.59733 z m -34.81598,2.13333 q -0.59734,0 -0.59734,-0.59733 V 110.296 h -14.07999 v 3.75467 h 13.48266 q 0.59733,0 0.59733,0.59733 v 24.74666 q 0,0.59733 -0.59733,0.59733 h -13.48266 v 3.75467 h 13.48266 q 0.59733,0 0.59733,0.59733 v 5.46133 q 0,0.59733 -0.59733,0.59733 h -13.48266 v 3.584 l 12.71466,-1.36533 q 0.512,-0.17067 0.68267,0.512 l 0.17066,2.304 q 4.01067,-7.08266 6.144,-16.81066 2.13333,-9.64266 2.90133,-25.59999 z m -30.03732,7.50933 v 4.01067 h 6.39999 V 120.536 Z m 15.35999,0 v 4.01067 h 6.144 V 120.536 Z m -15.35999,8.96 v 4.01066 h 6.39999 V 129.496 Z m 15.35999,0 v 4.01066 h 6.144 V 129.496 Z"
         id="path155" />
      <path
         d="m 462.8203,98.178676 q 0,0.597333 -0.59733,0.597333 h -23.89333 q -0.59733,0 -0.59733,-0.597333 v -6.143997 q 0,-0.597333 0.59733,-0.597333 h 23.89333 q 0.59733,0 0.59733,0.597333 z m 47.44531,52.650644 q 0,2.21867 0,3.84 0,1.62133 -0.17066,2.816 -0.0853,1.10933 -0.42667,1.96266 -0.34133,0.85334 -0.85333,1.536 -0.93867,1.28 -2.47467,1.70667 -1.536,0.256 -4.608,0.256 -1.36533,0 -4.43733,-0.17067 -2.98666,-0.0853 -7.76533,-0.256 -0.59733,0 -0.59733,-0.512 l -0.34133,-6.48533 q 0,-0.68266 0.68266,-0.68266 3.84,0.17066 6.144,0.34133 2.304,0.0853 2.98666,0.0853 2.56,0 2.90134,-0.59733 0.42666,-0.68267 0.42666,-3.84 V 99.032009 H 467.1723 q -0.59734,0 -0.59734,-0.597333 v -6.399997 q 0,-0.597333 0.59734,-0.597333 h 42.49598 q 0.59733,0 0.59733,0.597333 z M 464.52697,110.296 q 0,0.59734 -0.59734,0.59734 h -27.90399 q -0.59733,0 -0.59733,-0.59734 v -6.31466 q 0,-0.59733 0.59733,-0.59733 h 27.90399 q 0.59734,0 0.59734,0.59733 z m 33.02398,2.73067 q 0,0.59733 -0.59733,0.59733 H 469.7323 q -0.59734,0 -0.59734,-0.59733 v -5.888 q 0,-0.59733 0.59734,-0.59733 h 27.22132 q 0.59733,0 0.59733,0.59733 z m -34.90132,9.216 q 0,0.59733 -0.59733,0.59733 h -23.12532 q -0.59734,0 -0.59734,-0.59733 v -5.888 q 0,-0.59733 0.59734,-0.59733 h 23.12532 q 0.59733,0 0.59733,0.59733 z m 33.45066,26.11199 q 0,0.59733 -0.59734,0.59733 h -17.66399 v 6.144 q 0,0.59733 -0.59733,0.59733 h -6.74133 q -0.59734,0 -0.59734,-0.59733 v -32.93866 q 0,-0.59733 0.59734,-0.59733 h 25.00265 q 0.59734,0 0.59734,0.59733 z m -33.45066,-14.16533 q 0,0.59733 -0.59733,0.59733 h -23.12532 q -0.59734,0 -0.59734,-0.59733 V 128.216 q 0,-0.59734 0.59734,-0.59734 h 23.12532 q 0.59733,0 0.59733,0.59734 z m 15.18933,-5.888 v 13.99466 h 10.66666 v -13.99466 z m -14.76266,32.42665 q 0,0.59734 -0.59733,0.59734 h -16.81066 v 2.73066 q 0,0.59734 -0.59734,0.59734 h -6.74133 q -0.59733,0 -0.59733,-0.59734 v -23.89332 q 0,-0.59733 0.59733,-0.59733 h 24.14933 q 0.59733,0 0.59733,0.59733 z m -17.40799,-14.07999 v 7.50933 h 9.81333 v -7.50933 z"
         id="path157" />
    </g>
  </g>
</svg>
