<?xml version="1.0" encoding="UTF-8"?>
<!-- Created with Inkscape (http://www.inkscape.org/) -->
<svg id="svg5" width="76.695mm" height="78mm" version="1.1" viewBox="0 0 76.695 78" xmlns="http://www.w3.org/2000/svg">
 <g id="layer1" transform="translate(-1.3191 -1.0108)">
  <g id="g31" transform="matrix(.35278 0 0 -.35278 -159.97 113.57)">
   <g id="g351" transform="translate(587 224)">
    <path id="path353" d="m0 0c0-1.474-1.194-2.668-2.668-2.668s-2.668 1.194-2.668 2.668 1.194 2.668 2.668 2.668 2.668-1.194 2.668-2.668" fill="#1a171b" fill-rule="evenodd"/>
   </g>
   <g id="g355" transform="translate(557 224)">
    <path id="path357" d="m0 0c0-1.474-1.194-2.668-2.668-2.668s-2.668 1.194-2.668 2.668 1.194 2.668 2.668 2.668 2.668-1.194 2.668-2.668" fill="#1a171b" fill-rule="evenodd"/>
   </g>
   <g id="g359" transform="translate(581 199.33)">
    <path id="path361" d="m0 0c-0.553 0-1 0.447-1 1v13.667c0 0.553 0.447 1 1 1s1-0.447 1-1v-13.667c0-0.553-0.447-1-1-1" fill="#1a171b"/>
   </g>
   <g id="g363" transform="translate(580.33 233)">
    <path id="path365" d="m0 0c-4.963 0-9-4.037-9-9s4.037-9 9-9 9 4.037 9 9-4.037 9-9 9m0-20c-6.065 0-11 4.935-11 11s4.935 11 11 11 11-4.935 11-11-4.935-11-11-11" fill="#1a171b"/>
   </g>
   <g id="g367" transform="translate(550.33 199.33)">
    <path id="path369" d="m0 0c-0.553 0-1 0.447-1 1v13.667c0 0.553 0.447 1 1 1s1-0.447 1-1v-13.667c0-0.553-0.447-1-1-1" fill="#1a171b"/>
   </g>
   <g id="g371" transform="translate(550.33 233)">
    <path id="path373" d="m0 0c-4.963 0-9-4.037-9-9s4.037-9 9-9 9 4.037 9 9-4.037 9-9 9m0-20c-6.065 0-11 4.935-11 11s4.935 11 11 11 11-4.935 11-11-4.935-11-11-11" fill="#1a171b"/>
   </g>
   <g id="g375" transform="translate(489.29 202.35)">
    <path id="path377" d="m0 0v30.987c-15.538-0.179-28.08-12.823-28.08-28.405 0-15.693 12.72-28.414 28.413-28.414 14.82 0 26.986 11.352 28.292 25.832z" fill="#d69578" fill-rule="evenodd"/>
   </g>
   <g id="g379" transform="translate(646.54 202.35)">
    <path id="path381" d="m0 0v30.987c15.538-0.179 28.079-12.823 28.079-28.405 0-15.693-12.719-28.414-28.412-28.414-14.82 0-26.986 11.352-28.292 25.832z" fill="#d69578" fill-rule="evenodd"/>
   </g>
   <g id="g383" transform="translate(632.32 145.81)">
    <path id="path385" d="m0 0c0-26.423-28.743-47.843-64.199-47.843s-64.201 21.42-64.201 47.843 28.745 47.844 64.201 47.844 64.199-21.421 64.199-47.844" fill="#d69578" fill-rule="evenodd"/>
   </g>
   <g id="g387" transform="translate(485.29 240.3)">
    <path id="path389" d="m0 0c-14.472-0.7-26.08-12.774-26.08-27.375 0-15.116 12.298-27.414 27.413-27.414 13.912 0 25.409 10.17 27.177 23.832h-27.51c-0.553 0-1 0.447-1 1zm1.333-56.789c-16.219 0-29.413 13.195-29.413 29.414 0 16.028 13.04 29.22 29.068 29.405 0.265-0.027 0.525-0.1 0.715-0.289 0.19-0.187 0.297-0.443 0.297-0.711v-29.987h27.625c0.281 0 0.549-0.118 0.738-0.325 0.19-0.207 0.283-0.486 0.258-0.765-1.375-15.245-13.966-26.742-29.288-26.742" fill="#1a171b"/>
   </g>
   <g id="g391" transform="translate(500.4 156.17)">
    <path id="path393" d="m0 0h-13.918c-0.553 0-1 0.447-1 1v26.942c0 0.553 0.447 1 1 1s1-0.447 1-1v-25.942h12.918c0.553 0 1-0.447 1-1s-0.447-1-1-1" fill="#1a171b"/>
   </g>
   <g id="g395" transform="translate(616.03 209.35)">
    <path id="path397" d="m0 0c1.768-13.662 13.265-23.832 27.177-23.832 15.115 0 27.412 12.298 27.412 27.414 0 14.601-11.608 26.675-26.079 27.375v-29.957c0-0.553-0.448-1-1-1zm27.177-25.832c-15.323 0-27.913 11.497-29.288 26.742-0.026 0.279 0.068 0.558 0.257 0.765 0.19 0.207 0.458 0.325 0.739 0.325h27.625v29.987c0 0.268 0.107 0.524 0.297 0.711 0.19 0.189 0.445 0.257 0.714 0.289 16.028-0.185 29.068-13.377 29.068-29.405 0-16.219-13.194-29.414-29.412-29.414" fill="#1a171b"/>
   </g>
   <g id="g399" transform="translate(643.34 156.17)">
    <path id="path401" d="m0 0h-13.918c-0.553 0-1 0.447-1 1s0.447 1 1 1h12.918v25.942c0 0.553 0.447 1 1 1s1-0.447 1-1v-26.942c0-0.553-0.447-1-1-1" fill="#1a171b"/>
   </g>
   <g id="g403" transform="translate(565.12 200.65)">
    <path id="path405" d="m0 0c-34.85 0-63.201-21.014-63.201-46.844 0-25.829 28.351-46.843 63.201-46.843 34.849 0 63.199 21.014 63.199 46.843 0 25.83-28.35 46.844-63.199 46.844m0-95.687c-35.952 0-65.201 21.912-65.201 48.843 0 26.933 29.249 48.844 65.201 48.844 35.951 0 65.199-21.911 65.199-48.844 0-26.931-29.248-48.843-65.199-48.843" fill="#1a171b"/>
   </g>
   <g id="g407" transform="translate(502.4 142.94)">
    <path id="path409" d="m0 0h-32.879c-0.553 0-1 0.447-1 1s0.447 1 1 1h32.879c0.553 0 1-0.447 1-1s-0.447-1-1-1" fill="#1a171b"/>
   </g>
   <g id="g411" transform="translate(513.59 124.05)">
    <path id="path413" d="m0 0h-44.071c-0.553 0-1 0.447-1 1s0.447 1 1 1h44.071c0.553 0 1-0.447 1-1s-0.447-1-1-1" fill="#1a171b"/>
   </g>
   <g id="g415" transform="translate(661.54 142.94)">
    <path id="path417" d="m0 0h-32.879c-0.553 0-1 0.447-1 1s0.447 1 1 1h32.879c0.553 0 1-0.447 1-1s-0.447-1-1-1" fill="#1a171b"/>
   </g>
   <g id="g419" transform="translate(661.54 124.05)">
    <path id="path421" d="m0 0h-44.071c-0.553 0-1 0.447-1 1s0.447 1 1 1h44.071c0.553 0 1-0.447 1-1s-0.447-1-1-1" fill="#1a171b"/>
   </g>
  </g>
  <g id="text8133" transform="matrix(.34076 0 0 .32697 -107.1 -28.022)" fill="#d69578" style="shape-inside:url(#rect8135);white-space:pre" aria-label="動詞">
   <path id="path155" d="m425.61 110.89q0 6.3147 0 11.435t-0.0853 9.216q-0.0853 4.096-0.256 7.68-0.17067 3.4987-0.42667 6.4853-0.34133 2.9867-0.59733 5.2907t-0.59733 3.84q-0.34134 1.536-0.768 2.7307-0.42667 1.28-1.1093 2.2187-1.28 1.792-2.7307 2.2187-1.28 0.34134-3.7547 0.34134-3.7547 0-10.752-0.768-0.512-0.0853-0.512-0.59734l-0.17067-6.8267q0-0.68267 0.768-0.68267 2.4747 0.34134 4.5227 0.512 2.048 0.17067 3.6693 0.17067 0.85333 0 1.4507-0.59733 0.42667-0.59734 1.1093-2.816 0.256-1.1093 0.42666-2.6453 0.256-1.536 0.42667-3.584 0.17067-1.9627 0.256-4.6933 0.0853-2.7307 0.17067-6.3147 0.0853-3.584 0.0853-7.7653 0.0853-4.2667 0.0853-9.3867v-3.328h-9.728q-1.024 19.627-3.9253 30.805-1.4507 5.632-3.584 10.496-2.1333 4.7787-4.864 8.96-0.256 0.59734-0.85334 0.17067l-6.144-3.7547q-9.472 1.3653-18.688 2.2187-9.1307 0.85333-18.261 1.28-0.59733 0-0.59733-0.59733l-0.42667-6.144q0-0.59733 0.59733-0.59733 4.7787-0.17067 8.96-0.42667 4.1813-0.34133 7.8507-0.68267v-4.352h-15.445q-0.59734 0-0.59734-0.59733v-5.4613q0-0.59733 0.59734-0.59733h15.445v-3.7547h-14.165q-0.59733 0-0.59733-0.59733v-24.747q0-0.59733 0.59733-0.59733h14.165v-3.7547h-16.043q-0.59733 0-0.59733-0.59733v-5.5467q0-0.59734 0.59733-0.59734h16.043v-4.096q-7.3387 0.68266-14.336 0.768-0.59733 0-0.59733-0.59734l-0.42667-6.0587q0-0.59733 0.59733-0.59733 9.472-0.34133 18.603-1.1947 9.216-0.93867 18.432-2.4747 0.512 0 0.68267 0.512l0.85333 6.3147q0.17067 0.512-0.512 0.68267-3.4133 0.59733-6.9973 1.024-3.584 0.42667-7.3387 0.85333v4.864h14.592q0.59734 0 0.59734 0.59734v1.3653h7.68q0.256-7.2533 0.256-16.128 0-0.59733 0.59734-0.59733h7.168q0.59734 0 0.59734 0.59733 0 8.704-0.256 16.128h17.664q0.59733 0 0.59733 0.59733zm-34.816 2.1333q-0.59734 0-0.59734-0.59733v-2.1333h-14.08v3.7547h13.483q0.59733 0 0.59733 0.59733v24.747q0 0.59733-0.59733 0.59733h-13.483v3.7547h13.483q0.59733 0 0.59733 0.59733v5.4613q0 0.59733-0.59733 0.59733h-13.483v3.584l12.715-1.3653q0.512-0.17067 0.68267 0.512l0.17066 2.304q4.0107-7.0827 6.144-16.811 2.1333-9.6427 2.9013-25.6zm-30.037 7.5093v4.0107h6.4v-4.0107zm15.36 0v4.0107h6.144v-4.0107zm-15.36 8.96v4.0107h6.4v-4.0107zm15.36 0v4.0107h6.144v-4.0107z"/>
   <path id="path157" d="m462.82 98.179q0 0.59733-0.59733 0.59733h-23.893q-0.59733 0-0.59733-0.59733v-6.144q0-0.59733 0.59733-0.59733h23.893q0.59733 0 0.59733 0.59733zm47.445 52.651q0 2.2187 0 3.84t-0.17066 2.816q-0.0853 1.1093-0.42667 1.9627-0.34133 0.85334-0.85333 1.536-0.93867 1.28-2.4747 1.7067-1.536 0.256-4.608 0.256-1.3653 0-4.4373-0.17067-2.9867-0.0853-7.7653-0.256-0.59733 0-0.59733-0.512l-0.34133-6.4853q0-0.68266 0.68266-0.68266 3.84 0.17066 6.144 0.34133 2.304 0.0853 2.9867 0.0853 2.56 0 2.9013-0.59733 0.42666-0.68267 0.42666-3.84v-51.797h-34.56q-0.59734 0-0.59734-0.59733v-6.4q0-0.59733 0.59734-0.59733h42.496q0.59733 0 0.59733 0.59733zm-45.739-40.533q0 0.59734-0.59734 0.59734h-27.904q-0.59733 0-0.59733-0.59734v-6.3147q0-0.59733 0.59733-0.59733h27.904q0.59734 0 0.59734 0.59733zm33.024 2.7307q0 0.59733-0.59733 0.59733h-27.221q-0.59734 0-0.59734-0.59733v-5.888q0-0.59733 0.59734-0.59733h27.221q0.59733 0 0.59733 0.59733zm-34.901 9.216q0 0.59733-0.59733 0.59733h-23.125q-0.59734 0-0.59734-0.59733v-5.888q0-0.59733 0.59734-0.59733h23.125q0.59733 0 0.59733 0.59733zm33.451 26.112q0 0.59733-0.59734 0.59733h-17.664v6.144q0 0.59733-0.59733 0.59733h-6.7413q-0.59734 0-0.59734-0.59733v-32.939q0-0.59733 0.59734-0.59733h25.003q0.59734 0 0.59734 0.59733zm-33.451-14.165q0 0.59733-0.59733 0.59733h-23.125q-0.59734 0-0.59734-0.59733v-5.9733q0-0.59734 0.59734-0.59734h23.125q0.59733 0 0.59733 0.59734zm15.189-5.888v13.995h10.667v-13.995zm-14.763 32.427q0 0.59734-0.59733 0.59734h-16.811v2.7307q0 0.59734-0.59734 0.59734h-6.7413q-0.59733 0-0.59733-0.59734v-23.893q0-0.59733 0.59733-0.59733h24.149q0.59733 0 0.59733 0.59733zm-17.408-14.08v7.5093h9.8133v-7.5093z"/>
  </g>
 </g>
</svg>
